HIERARCHY
ROOT Hips
{
	OFFSET -0.001795 -0.223333 0.028219
	CHANNELS 6 Xposition Yposition Zposition Zrotation Yrotation Xrotation 
	JOINT LeftUpLeg
	{
		OFFSET 0.069520 -0.091406 -0.006815
		CHANNELS 3 Zrotation Yrotation Xrotation
		JOINT LeftLeg
		{
			OFFSET 0.034277 -0.375199 -0.004496
			CHANNELS 3 Zrotation Yrotation Xrotation
			JOINT LeftFoot
			{
				OFFSET -0.013596 -0.397961 -0.043693
				CHANNELS 3 Zrotation Yrotation Xrotation
				JOINT LeftToe
				{
					OFFSET 0.026358 -0.055791 0.119288
					CHANNELS 3 Zrotation Yrotation Xrotation
					End Site
					{
						OFFSET 0.000000 0.000000 0.000000
					}
				}
			}
		}
	}
	JOINT RightUpLeg
	{
		OFFSET -0.067670 -0.090522 -0.004320
		CHANNELS 3 Zrotation Yrotation Xrotation
		JOINT RightLeg
		{
			OFFSET -0.038290 -0.382569 -0.008850
			CHANNELS 3 Zrotation Yrotation Xrotation
			JOINT RightFoot
			{
				OFFSET 0.015774 -0.398415 -0.042312
				CHANNELS 3 Zrotation Yrotation Xrotation
				JOINT RightToe
				{
					OFFSET -0.025372 -0.048144 0.123348
					CHANNELS 3 Zrotation Yrotation Xrotation
					End Site
					{
						OFFSET 0.000000 0.000000 0.000000
					}
				}
			}
		}
	}
	JOINT Spine
	{
		OFFSET -0.002533 0.108963 -0.026696
		CHANNELS 3 Zrotation Yrotation Xrotation
		JOINT Spine1
		{
			OFFSET 0.005487 0.135180 0.001092
			CHANNELS 3 Zrotation Yrotation Xrotation
			JOINT Spine2
			{
				OFFSET 0.001457 0.052922 0.025425
				CHANNELS 3 Zrotation Yrotation Xrotation
				JOINT Neck
				{
					OFFSET -0.002778 0.213870 -0.042857
					CHANNELS 3 Zrotation Yrotation Xrotation
					JOINT Head
					{
						OFFSET 0.005152 0.064970 0.051349
						CHANNELS 3 Zrotation Yrotation Xrotation
						End Site
						{
							OFFSET 0.000000 0.000000 0.000000
						}
					}
				}
				JOINT LeftShoulder
				{
					OFFSET 0.078845 0.121749 -0.034090
					CHANNELS 3 Zrotation Yrotation Xrotation
					JOINT LeftArm
					{
						OFFSET 0.090977 0.030469 -0.008868
						CHANNELS 3 Zrotation Yrotation Xrotation
						JOINT LeftForeArm
						{
							OFFSET 0.259612 -0.012772 -0.027456
							CHANNELS 3 Zrotation Yrotation Xrotation
							JOINT LeftHand
							{
								OFFSET 0.249234 0.008986 -0.001171
								CHANNELS 3 Zrotation Yrotation Xrotation
								End Site
								{
									OFFSET 0.000000 0.000000 0.000000
								}
							}
						}
					}
				}
				JOINT RightShoulder
				{
					OFFSET -0.081759 0.118833 -0.038615
					CHANNELS 3 Zrotation Yrotation Xrotation
					JOINT RightArm
					{
						OFFSET -0.096012 0.032551 -0.009143
						CHANNELS 3 Zrotation Yrotation Xrotation
						JOINT RightForeArm
						{
							OFFSET -0.253742 -0.013329 -0.021401
							CHANNELS 3 Zrotation Yrotation Xrotation
							JOINT RightHand
							{
								OFFSET -0.255298 0.007772 -0.005559
								CHANNELS 3 Zrotation Yrotation Xrotation
								End Site
								{
									OFFSET 0.000000 0.000000 0.000000
								}
							}
						}
					}
				}
			}
		}
	}
}
MOTION
Frames: 7
Frame Time: 0.050000
0.000000 0.955182 0.000000 -5.622587 -13.699430 -0.348994 9.606051 0.251817 -3.473007 -4.819807 0.944762 8.695197 5.284863 11.851328 11.107142 0.000000 0.000000 0.000000 -6.053431 0.938770 -11.418162 10.228476 -1.022182 25.376172 -3.984805 -12.571488 7.659958 0.000000 0.000000 0.000000 -0.842679 -0.248675 10.265442 -4.413135 1.406134 -19.865332 -0.610602 5.482616 26.069864 10.018476 -5.941822 -18.387269 0.000000 0.000000 0.000000 -3.212939 -17.760183 6.766826 -47.934125 -36.431171 7.459629 31.362633 -63.877931 -14.491362 0.000000 0.000000 0.000000 13.906321 8.576378 2.841693 61.507889 23.805707 4.140893 57.304149 73.138997 48.843264 0.000000 0.000000 0.000000 
-0.026941 0.953583 0.012469 -6.498920 -12.862126 0.336525 12.046859 0.378086 -3.140894 -4.301507 0.793591 8.492740 4.728482 11.061281 11.932981 0.000000 0.000000 0.000000 -9.298404 0.854723 -12.252174 7.892047 -0.505644 23.642259 -2.036616 -10.115051 11.595506 0.000000 0.000000 0.000000 -0.151947 -0.268173 7.513373 -4.212298 1.382863 -18.046821 0.120844 5.203322 25.896965 7.392185 -4.492561 -15.580459 0.000000 0.000000 0.000000 -2.374560 -17.066299 6.361997 -50.945462 -37.369050 8.748515 37.291306 -69.638824 -20.116427 0.000000 0.000000 0.000000 12.312520 8.051762 2.644974 61.685669 24.813152 4.793362 70.419815 74.439270 61.427593 0.000000 0.000000 0.000000 
-0.056212 0.950665 0.025132 -6.272986 -11.002712 0.129135 14.765830 0.528392 -4.043031 -5.727054 1.177681 11.190168 3.404200 9.216970 12.894449 0.000000 0.000000 0.000000 -13.351454 0.633522 -11.210251 6.062667 -0.309937 18.728103 -0.463149 -9.286242 18.183941 0.000000 0.000000 0.000000 0.215995 -0.293878 7.251257 -2.334179 0.869275 -18.314009 -1.097673 7.518906 26.371001 9.796482 -5.588836 -16.498034 0.000000 0.000000 0.000000 -3.645682 -17.945210 6.626884 -51.033514 -38.450980 8.787053 49.397618 -72.724776 -31.547300 0.000000 0.000000 0.000000 12.686212 6.807001 2.687792 58.697123 26.792707 5.514277 76.318152 78.581482 72.562712 0.000000 0.000000 0.000000 
-0.088541 0.944045 0.037725 -6.406486 -9.945191 0.617992 16.631336 0.569736 -3.660680 -5.053935 0.998446 11.720101 2.893000 8.195350 10.963237 0.000000 0.000000 0.000000 -16.315027 0.567772 -9.651904 3.796271 -0.060774 12.360940 0.834261 -7.948570 20.972094 0.000000 0.000000 0.000000 2.450142 -0.333129 4.948200 -4.156039 1.438741 -18.401173 -0.990419 7.152406 27.600935 9.056995 -5.187442 -15.902620 0.000000 0.000000 0.000000 -3.089066 -16.758333 6.109341 -53.837262 -40.050687 10.266911 57.728693 -73.989952 -38.680910 0.000000 0.000000 0.000000 12.141499 5.905281 2.320176 59.212040 29.052829 6.749233 78.375288 80.169655 76.491279 0.000000 0.000000 0.000000 
-0.125517 0.936981 0.049566 -6.161131 -9.965693 0.568549 18.701395 0.666983 -2.901784 -4.750028 0.958116 12.702567 2.309682 7.207074 10.832433 0.000000 0.000000 0.000000 -19.384986 0.512528 -10.193717 1.077430 0.310156 9.598263 3.713134 -5.332492 26.183262 0.000000 0.000000 0.000000 3.302620 -0.292904 3.716825 -3.513442 1.242242 -18.002461 -1.103947 9.393577 27.219179 10.184871 -5.903068 -14.783673 0.000000 0.000000 0.000000 -3.942618 -16.868835 6.070154 -53.883069 -39.279094 9.560206 68.507006 -74.296095 -48.702716 0.000000 0.000000 0.000000 13.473815 6.155232 2.845440 56.524827 31.803599 7.782300 74.356375 82.970651 76.144770 0.000000 0.000000 0.000000 
-0.167785 0.928816 0.059412 -5.466744 -9.633685 0.754311 21.009343 0.722571 -2.144329 -5.011172 0.998488 12.452709 1.527008 6.154582 11.930226 0.000000 0.000000 0.000000 -20.832769 0.470526 -10.424097 -0.920735 0.564916 8.308937 4.930491 -4.667624 29.470565 0.000000 0.000000 0.000000 4.216736 -0.230722 2.450599 -4.530479 1.569592 -17.461556 -0.863956 10.457279 26.609806 11.341885 -6.472140 -15.152230 0.000000 0.000000 0.000000 -4.914433 -17.081141 6.106597 -53.691248 -38.628037 9.105792 77.407314 -73.890407 -56.721928 0.000000 0.000000 0.000000 13.036667 7.564014 3.703531 55.269248 34.483274 9.072676 57.956596 85.633138 63.149438 0.000000 0.000000 0.000000 
-0.217952 0.919740 0.066399 -4.460900 -7.788762 0.291373 22.527952 0.596181 -1.519642 -3.936553 0.670903 12.562572 1.092157 5.737770 12.366180 0.000000 0.000000 0.000000 -20.416653 0.425717 -8.670076 0.389187 0.361095 8.799726 2.951718 -6.583585 28.063946 0.000000 0.000000 0.000000 4.426042 -0.189740 1.935257 -5.452940 1.934862 -16.382395 -1.131551 9.583662 25.048778 10.878587 -6.540189 -12.953670 0.000000 0.000000 0.000000 -5.570536 -16.192963 5.736964 -53.937973 -38.182949 9.062621 81.206435 -73.789862 -60.407624 0.000000 0.000000 0.000000 13.223290 9.208106 4.552124 56.016052 38.365842 11.622673 2.399176 84.320321 10.465539 0.000000 0.000000 0.000000 
